# xmcd
#
# Track frame offsets:
#	150
#	16533
#	33180
#	50814
#	68780
#	85100
#	102290
#	117485
#	135685
#	152083
#	167058
#
# Disc length: 2420 seconds
#
# Revision: 1
# Processed by: cddbd v1.5.2PL0 Copyright (c) Steve Scherf et al.
# Submitted via: audiograbber 1.83.01
#
DISCID=8709720b
DTITLE=Cindy Kvinlaug - The best part of me
DYEAR=2010
DGENRE=Country
TTITLE0=Hearts don't break
TTITLE1=Freedom
TTITLE2=Long gone train
TTITLE3=Aint gonna take it
TTITLE4=I'd find you
TTITLE5=Mercy on me
TTITLE6=Why did it have to be you
TTITLE7=If I was an angel
TTITLE8=Something real
TTITLE9=This ol `Halo
TTITLE10=The best part of me
EXTD=2010 mtgmusic MTG 20108
EXTT0=
EXTT1=
EXTT2=
EXTT3=
EXTT4=
EXTT5=
EXTT6=
EXTT7=
EXTT8=
EXTT9=
EXTT10=
PLAYORDER=
